<?xml version="1.0" standalone="no"?>
<!DOCTYPE svg PUBLIC "-//W3C//DTD SVG 20010904//EN"
 "http://www.w3.org/TR/2001/REC-SVG-20010904/DTD/svg10.dtd">
<svg version="1.0" xmlns="http://www.w3.org/2000/svg"
 width="1080.000000pt" height="1080.000000pt" viewBox="0 0 1080.000000 1080.000000"
 preserveAspectRatio="xMidYMid meet">

<g transform="translate(0.000000,1080.000000) scale(0.100000,-0.100000)"
fill="#000000" stroke="none">
<path d="M1648 6841 c-156 -50 -279 -186 -323 -356 -13 -50 -15 -164 -15 -770
0 -464 4 -732 11 -771 31 -174 155 -317 328 -381 19 -7 62 -40 96 -72 65 -63
140 -106 220 -127 35 -10 122 -14 293 -14 l243 0 24 25 c35 35 34 85 -4 127
l-29 33 -244 5 c-228 5 -246 6 -290 28 -56 28 -112 88 -142 151 -21 46 -21 51
-21 791 l0 745 29 58 c31 64 99 126 163 149 28 10 112 13 328 13 290 0 290 0
364 -27 92 -33 120 -53 254 -178 97 -90 111 -100 145 -100 61 0 103 54 88 114
-9 38 -225 243 -308 294 -40 24 -91 61 -113 81 -90 83 -206 145 -340 182 -62
17 -102 19 -385 18 -277 0 -322 -2 -372 -18z m332 -185 c-174 -37 -318 -178
-365 -357 -12 -44 -15 -181 -15 -768 l0 -714 -21 19 c-12 10 -32 42 -45 69
l-24 50 0 751 0 750 25 50 c31 62 78 109 141 140 45 22 60 23 204 23 145 -1
151 -1 100 -13z"/>
<path d="M6870 5872 c0 -768 -1 -756 62 -874 108 -203 423 -301 685 -213 287
97 455 394 414 734 -27 220 -140 394 -312 480 -133 67 -321 80 -454 32 -33
-12 -68 -24 -77 -28 -17 -5 -18 13 -18 281 l0 286 -150 0 -150 0 0 -698z m667
-107 c68 -20 143 -88 172 -155 44 -103 38 -274 -15 -385 -57 -123 -148 -185
-269 -185 -128 0 -214 44 -244 123 -7 17 -11 126 -11 277 l0 248 36 23 c109
67 224 86 331 54z"/>
<path d="M5965 6044 c-234 -48 -429 -239 -490 -479 -19 -76 -19 -251 0 -333
50 -213 233 -389 474 -454 60 -16 106 -21 216 -21 156 0 262 18 357 60 55 24
57 26 62 72 9 81 18 241 13 241 -3 0 -34 -14 -69 -30 -88 -41 -183 -60 -308
-60 -165 0 -267 32 -351 107 -39 36 -81 97 -93 139 l-7 22 388 5 c379 5 519
16 535 41 14 21 8 218 -8 285 -38 152 -131 276 -265 354 -106 62 -297 83 -454
51z m257 -261 c21 -8 56 -35 78 -60 40 -46 85 -146 76 -170 -4 -10 -64 -13
-305 -13 l-300 0 17 45 c22 60 77 132 129 169 77 54 211 66 305 29z"/>
<path d="M3595 6018 c4 -13 89 -297 189 -633 l184 -610 155 -3 155 -2 11 32
c5 18 53 195 106 393 120 450 106 404 115 380 4 -11 58 -197 121 -412 l113
-393 157 0 158 0 16 58 c9 31 93 315 186 630 93 315 169 575 169 578 0 2 -65
4 -145 4 l-144 0 -9 -32 c-5 -18 -55 -225 -112 -461 -57 -235 -107 -424 -110
-420 -4 5 -55 190 -115 413 -59 223 -114 426 -122 453 l-14 47 -138 0 -137 0
-120 -449 c-65 -247 -121 -447 -124 -444 -3 2 -55 203 -115 446 l-111 442
-162 3 -163 2 6 -22z"/>
<path d="M8187 6028 c4 -7 11 -213 14 -458 7 -473 10 -502 60 -607 109 -226
413 -279 654 -113 l45 31 0 -56 0 -55 156 0 c138 0 155 2 150 16 -3 9 -6 294
-6 635 l0 619 -150 0 -150 0 0 -448 0 -448 -32 -31 c-52 -48 -96 -66 -179 -71
-91 -5 -136 8 -178 50 -63 64 -65 80 -69 536 l-3 412 -160 0 c-126 0 -158 -3
-152 -12z"/>
<path d="M2827 5743 c-9 -3 -90 -97 -178 -209 -158 -201 -190 -231 -230 -219
-10 3 -66 42 -124 85 -116 87 -141 95 -180 56 -32 -32 -40 -69 -25 -107 14
-33 172 -165 242 -201 88 -46 216 -21 289 58 34 37 250 313 297 381 54 77 -4
177 -91 156z"/>
</g>
</svg>
