<?xml version="1.0" encoding="utf-8"?>
<!-- Generator: Adobe Illustrator 16.0.3, SVG Export Plug-In . SVG Version: 6.00 Build 0)  -->
<!DOCTYPE svg PUBLIC "-//W3C//DTD SVG 1.1//EN" "http://www.w3.org/Graphics/SVG/1.1/DTD/svg11.dtd">
<svg version="1.1" id="Capa_1" xmlns="http://www.w3.org/2000/svg" xmlns:xlink="http://www.w3.org/1999/xlink" x="0px" y="0px"
	 width="1080px" height="328px" viewBox="0 357.5 1080 328" enable-background="new 0 357.5 1080 328" xml:space="preserve">
<g transform="translate(0.000000,1080.000000) scale(0.100000,-0.100000)">
	<path d="M1647.995,6841C1491.999,6791,1369.001,6655,1324.997,6485c-12.998-50-15-164.004-15-770
		c0-464.004,4.004-732.002,11.006-770.996c30.996-174.004,155-317.002,327.998-381.006c18.994-7.002,62.002-40,95.996-72.002
		c65-62.998,140-105.996,220-126.992c35-10,122.002-14.004,292.998-14.004h243.008l23.994,25c35,35,34.004,85-3.994,127.002
		L2491.999,4535l-244.004,5c-227.998,5-245.996,5.996-290,27.998c-55.996,27.998-111.992,87.998-141.992,151.006
		C1794.997,4765,1794.997,4770,1794.997,5510v745l29.004,57.998c30.996,64.004,98.994,126.006,162.998,149.004
		c27.998,10,112.002,12.998,327.998,12.998c290,0,290,0,364.004-27.002c92.002-32.998,120-52.998,253.994-177.998
		c97.002-90,111.006-100,145.01-100c60.996,0,102.998,54.004,87.998,114.004c-9.004,37.998-225,242.998-308.008,293.994
		c-40,24.004-90.996,61.001-112.998,81.001c-90,83.003-205.996,145-340,182.002c-62.002,16.997-102.002,18.999-385,17.998
		C1742.995,6858.999,1697.995,6857.001,1647.995,6841z M1979.997,6656c-173.994-37.002-317.998-178.003-365-356.997
		c-12.002-44.004-15-181.006-15-768.008v-713.994l-20.996,18.994c-12.002,10-32.002,42.002-45,69.004l-24.004,50v750.996v750l25,50
		c31.006,62.002,77.998,109.004,141.006,140.005c45,21.997,60,22.998,203.994,22.998
		C2024.997,6667.998,2031.003,6667.998,1979.997,6656z"/>
	<path d="M6869.997,5872.001c0-767.998-0.996-756.006,62.002-874.004c107.998-202.998,422.998-300.996,685-212.998
		c287.002,97.002,455,394.004,414.004,734.004c-27.002,220-140,393.994-312.002,480c-132.998,66.992-320.996,80-454.003,31.992
		c-32.998-11.992-67.998-23.994-76.992-27.998c-17.002-5-18.008,12.998-18.008,281.006V6570h-150h-150V5872.001z M7536.999,5765
		c67.998-20,142.998-87.998,172.002-155c44.004-102.998,37.998-274.004-15-385c-57.002-122.998-147.998-185-269.003-185
		c-127.998,0-213.994,44.004-243.994,122.998c-7.002,17.002-11.006,126.006-11.006,277.002v247.998l36.006,22.998
		C7314.997,5777.998,7429.997,5797.001,7536.999,5765z"/>
	<path d="M5964.997,6044.003c-233.994-48.008-428.994-239.004-490-479.004c-18.994-75.996-18.994-250.996,0-332.998
		c50-212.998,233.008-389.004,474.004-454.004c60-15.996,105.996-20.996,215.996-20.996c156.006,0,262.002,17.998,357.002,60
		c55,23.994,57.002,25.996,62.002,72.002C6593.005,4970,6601.999,5130,6596.999,5130c-2.998,0-33.994-14.004-68.994-30
		c-88.008-40.996-183.008-60-308.008-60c-165,0-266.992,32.002-350.996,107.002c-39.004,35.996-80.996,97.002-92.998,138.994
		l-7.002,22.002l387.998,5c379.004,5,519.004,16.006,535,41.006c14.004,20.996,7.998,217.998-7.998,285
		c-37.998,151.992-130.996,275.996-265,353.994C6313.005,6055,6121.999,6075.996,5964.997,6044.003z M6221.999,5782.998
		c21.006-7.998,56.006-35,77.998-60c40-45.996,85-145.996,76.006-170c-4.004-10-64.004-12.998-305-12.998h-300l17.002,45
		c21.992,60,76.992,132.002,128.994,169.004C5994.001,5807.998,6128.005,5820,6221.999,5782.998z"/>
	<path d="M3594.997,6017.998c4.004-12.998,89.004-297.002,189.004-632.998l184.004-610l155-2.998l155-2.002l10.996,32.002
		c5,17.998,52.998,195,105.996,392.998c120,450,106.006,404.004,115,380c4.004-10.996,58.008-197.002,121.006-412.002L4744.001,4770
		h157.002h157.998l15.996,57.998c9.004,31.006,93.008,315,186.006,630s168.994,575,168.994,577.998c0,2.002-65,4.004-145,4.004
		h-143.994l-9.004-32.002c-5-17.998-55-225-112.002-460.996c-56.992-235-106.992-424.004-110-420c-3.994,5-55,190-115,412.998
		c-58.994,222.998-113.994,425.996-121.992,452.998L4659.001,6040h-137.998h-137.002l-120-449.004
		c-65-246.992-120.996-446.992-124.004-443.994c-2.998,2.002-55,202.998-115,445.996L3914.001,6035l-162.002,2.998L3589.001,6040
		L3594.997,6017.998z"/>
	<path d="M8186.999,6027.998c4.004-7.002,11.006-212.998,14.004-457.998c7.002-472.998,10-502.002,60-607.002
		c108.994-225.996,412.998-278.994,653.994-112.998l45,30.996V4825v-55h156.006c137.998,0,155,2.002,150,15.996
		c-2.998,9.004-6.006,294.004-6.006,635V6040h-150h-150v-447.998v-447.998l-31.992-31.006
		c-52.002-47.998-96.006-65.996-179.004-70.996c-90.996-5-135.996,7.998-177.998,50c-62.998,63.994-65,80-69.004,535.996
		L8499.001,6040h-160C8213.005,6040,8181.002,6037.001,8186.999,6027.998z"/>
	<path d="M2826.999,5742.998c-9.004-2.998-90-97.002-177.998-208.994c-157.998-201.006-190-231.006-230-219.004
		c-10,2.998-66.006,42.002-124.004,85c-115.996,87.002-140.996,95-180,55.996c-32.002-31.992-40-68.994-25-106.992
		c14.004-33.008,172.002-165,242.002-201.006c87.998-45.996,215.996-20.996,289.004,57.998
		c33.994,37.002,250,313.008,296.992,381.006C2971.999,5664.003,2914.001,5764.003,2826.999,5742.998z"/>
</g>
</svg>
