<?xml version="1.0" encoding="utf-8"?>
<!-- Generator: Adobe Illustrator 16.0.3, SVG Export Plug-In . SVG Version: 6.00 Build 0)  -->
<!DOCTYPE svg PUBLIC "-//W3C//DTD SVG 1.1//EN" "http://www.w3.org/Graphics/SVG/1.1/DTD/svg11.dtd">
<svg version="1.1" id="Outline" xmlns="http://www.w3.org/2000/svg" xmlns:xlink="http://www.w3.org/1999/xlink" x="0px" y="0px"
	 width="512px" height="512px" viewBox="0 0 512 512" enable-background="new 0 0 512 512" xml:space="preserve">
<path d="M31.517,481.649h39.426v-77.955c0,0-0.001-55.555,49.283-55.555c49.283,0,112.006,0,112.006,0s46.595,8.961,47.491,59.14
	c0.896,50.18,0,74.37,0,74.37h40.322v-88.708c0,0,0-84.765-94.414-83.332c-81.212-0.896-194.114-16.128-194.114,77.956
	S31.517,481.649,31.517,481.649z"/>
<g>
	<path d="M173.458,121.12c35.548,0,64.469,28.92,64.469,64.469s-28.921,64.469-64.469,64.469s-64.469-28.921-64.469-64.469
		S137.91,121.12,173.458,121.12 M173.458,99.12c-47.755,0-86.469,38.713-86.469,86.469s38.713,86.469,86.469,86.469
		s86.469-38.714,86.469-86.469S221.214,99.12,173.458,99.12L173.458,99.12z"/>
</g>
<g>
	<path d="M364.981,44.168c35.548,0,64.468,28.92,64.468,64.469s-28.92,64.469-64.468,64.469s-64.469-28.921-64.469-64.469
		S329.434,44.168,364.981,44.168 M364.981,22.168c-47.756,0-86.469,38.713-86.469,86.469s38.713,86.469,86.469,86.469
		c47.755,0,86.468-38.714,86.468-86.469S412.736,22.168,364.981,22.168L364.981,22.168z"/>
</g>
<path d="M320.045,234.341v37.717c0,0,66.532,0,88.709,0c21.821,5.261,42.695,7.982,42.695,76.082
	c1.211,57.347,1.211,57.347,1.211,57.347h37.634V304.233c0,0,0-69.893-85.125-69.893
	C320.045,234.341,320.045,234.341,320.045,234.341z"/>
</svg>
